<svg xmlns="http://www.w3.org/2000/svg" width="18.914" height="18.088" viewBox="0 0 18.914 18.088">
  <path id="star" d="M10.371,1.615,12.5,5.937a1.018,1.018,0,0,0,.767.557l4.77.693a1.018,1.018,0,0,1,.565,1.737l-3.452,3.365a1.019,1.019,0,0,0-.293.9l.815,4.751A1.019,1.019,0,0,1,14.2,19.016L9.932,16.773a1.02,1.02,0,0,0-.948,0L4.717,19.016a1.019,1.019,0,0,1-1.478-1.074l.815-4.751a1.019,1.019,0,0,0-.293-.9L.309,8.925A1.018,1.018,0,0,1,.874,7.188l4.77-.693a1.018,1.018,0,0,0,.767-.557L8.545,1.615A1.018,1.018,0,0,1,10.371,1.615Z" transform="translate(-0.001 -1.047)" fill="#ffd11a"/>
</svg>
