<svg xmlns="http://www.w3.org/2000/svg" viewBox="0 0 110.38 134.47"><defs><style>.cls-1{fill:#1a1a1a;}.cls-2{fill:#fff;}</style></defs><g id="Camada_3" data-name="Camada 3"><circle class="cls-1" cx="55.12" cy="69.27" r="47.21"/><path class="cls-2" d="M57,97.24H54.7V90.48a12.39,12.39,0,0,1-7.8-2.6,8.37,8.37,0,0,1-3.38-7,3.94,3.94,0,0,1,.91-2.47,3,3,0,0,1,2.47-1.17,2.73,2.73,0,0,1,2.21.78,3.61,3.61,0,0,1,.65,2.34A3.18,3.18,0,0,1,49,82.69,3.18,3.18,0,0,0,48.2,85c0,1,.65,1.9,1.95,2.6a9.55,9.55,0,0,0,4.55,1V68.91q-7.28-5.46-8.58-8.19a11.41,11.41,0,0,1-1.3-4.81,9.45,9.45,0,0,1,3-6.88,11.79,11.79,0,0,1,6.89-3.51V40.84H57v4.68A9.51,9.51,0,0,1,63.67,48a7.16,7.16,0,0,1,2.73,5.32,5.12,5.12,0,0,1-.91,3.38,3.1,3.1,0,0,1-2.47,1,3,3,0,0,1-2-.52,2.18,2.18,0,0,1-.65-1.82,2.5,2.5,0,0,1,.78-1.82c.52-.34.78-1.12.78-2.33a4.18,4.18,0,0,0-1.17-2.47A4.61,4.61,0,0,0,57,47.34V64.23a50.88,50.88,0,0,1,7.15,7,11.35,11.35,0,0,1,2.72,7.28q0,6-3.24,8.71A13.6,13.6,0,0,1,57,90.48ZM48.72,54.61a6.68,6.68,0,0,0,1.43,4,22,22,0,0,0,4.55,4.29V47.34a8.83,8.83,0,0,0-4.16,2.21A6.57,6.57,0,0,0,48.72,54.61ZM57,88.4a6.15,6.15,0,0,0,4-1.68Q63,85,63,80.35a10.05,10.05,0,0,0-1.43-5.07A16.75,16.75,0,0,0,57,70.47Z"/><rect class="cls-2" x="54.7" y="39.97" width="2.34" height="58.1" rx="1.17"/></g></svg>