<svg xmlns="http://www.w3.org/2000/svg" viewBox="0 0 102.33 109.06"><defs><style>.cls-1{fill:#1a1a1a;}.cls-2{fill:#fff;}</style></defs><g id="Camada_3" data-name="Camada 3"><circle class="cls-1" cx="51.37" cy="54.5" r="47.21"/><path class="cls-2" d="M58,75.85v1.42a1.44,1.44,0,0,1-1.47,1.54,2.19,2.19,0,0,0-1.87.81,3.73,3.73,0,0,1-5.78-.47.64.64,0,0,0-.66-.33,6.19,6.19,0,0,1-.86,0A1.43,1.43,0,0,1,46,77.44c0-1.07,0-2.14,0-3.2a1.46,1.46,0,0,1,1.52-1.41q4.49,0,9,0A1.49,1.49,0,0,1,58,74.43Z"/><path class="cls-2" d="M56.28,70.19h-.15c-1,0-1.92,0-2.86,0H47.75a2.77,2.77,0,0,1-2-.75,2.31,2.31,0,0,1-.61-1.78c.06-1.54-.69-2.76-1.55-4.17l-.19-.3-.69-1.1a27.19,27.19,0,0,1-2.19-4,12.27,12.27,0,0,1,2.2-13.57,11.81,11.81,0,0,1,9.13-4.16H52a12.24,12.24,0,0,1,11.43,7.18h0c2,4,1.71,8.26-.78,12.58-.57,1-1.2,2-1.8,2.9-.32.49-.64,1-1,1.48A4.91,4.91,0,0,0,59,67.33a2.53,2.53,0,0,1-2.72,2.86Zm-1.75-2,1.67,0a1,1,0,0,0,.66-.14.93.93,0,0,0,.13-.62,6.75,6.75,0,0,1,1.2-4q.47-.75,1-1.5c.59-.92,1.2-1.86,1.74-2.81,2.17-3.76,2.4-7.26.72-10.69A10.18,10.18,0,0,0,52,42.4a9.81,9.81,0,0,0-7.78,3.47,10.24,10.24,0,0,0-1.85,11.47,25.26,25.26,0,0,0,2,3.66l.7,1.13.18.3c1,1.54,1.94,3.14,1.85,5.3a.46.46,0,0,0,0,.3,1,1,0,0,0,.61.13h6.77Z"/><path class="cls-2" d="M52,35.85a1,1,0,0,1-1-1V28.73a1,1,0,1,1,2,0v6.11A1,1,0,0,1,52,35.85Z"/><path class="cls-2" d="M62.53,38.7a1,1,0,0,1-.59-.18,1,1,0,0,1-.23-1.41L67,29.63a1,1,0,1,1,1.64,1.17l-5.32,7.48A1,1,0,0,1,62.53,38.7Z"/><path class="cls-2" d="M68.75,46.82a1,1,0,0,1-.93-.6,1,1,0,0,1,.51-1.33l5.9-2.63a1,1,0,0,1,1.33.51,1,1,0,0,1-.51,1.33l-5.9,2.63A1,1,0,0,1,68.75,46.82Z"/><path class="cls-2" d="M40.41,39.14a1,1,0,0,1-.82-.43l-5.32-7.48a1,1,0,1,1,1.64-1.17l5.32,7.48A1,1,0,0,1,41,39,1.06,1.06,0,0,1,40.41,39.14Z"/><path class="cls-2" d="M34.19,47.25a1,1,0,0,1-.41-.09L27.7,44.45a1,1,0,1,1,.82-1.84l6.08,2.71a1,1,0,0,1,.51,1.33A1,1,0,0,1,34.19,47.25Z"/></g></svg>