<svg id="Grupo_106" data-name="Grupo 106" xmlns="http://www.w3.org/2000/svg" xmlns:xlink="http://www.w3.org/1999/xlink" width="208.465" height="73.629" viewBox="0 0 208.465 73.629">
  <defs>
    <clipPath id="clip-path">
      <rect id="Retângulo_645" data-name="Retângulo 645" width="208.465" height="73.629" fill="none"/>
    </clipPath>
  </defs>
  <g id="Grupo_105" data-name="Grupo 105" clip-path="url(#clip-path)">
    <g id="Grupo_111" data-name="Grupo 111">
      <path id="Caminho_314" data-name="Caminho 314" d="M45.89,36.226H36.045a11.29,11.29,0,0,0-7.425,2.788,11.292,11.292,0,0,0-7.425-2.788H11.35A11.383,11.383,0,0,0,0,47.576v24.31H9.026V51.516a7.548,7.548,0,0,1,15.1,0v20.37h9.6V51.516a7.547,7.547,0,0,1,15.095,0v20.37H57.24V47.576a11.383,11.383,0,0,0-11.35-11.35" transform="translate(0 -17.182)" fill="#e64a3f"/>
      <path id="Caminho_315" data-name="Caminho 315" d="M203.38,36.226c-.485,0-.965.025-1.44.063H185.55V90.811h8.423V71.886h9.407a17.83,17.83,0,0,0,0-35.66m.447,28.225h-9.854V43.985h9.058c.263-.022.528-.036.8-.036a10.259,10.259,0,0,1,0,20.5" transform="translate(-88.007 -17.182)" fill="#e64a3f"/>
      <path id="Caminho_316" data-name="Caminho 316" d="M280.733,71.886h-9.845a11.383,11.383,0,0,1-11.35-11.35V36.226h9.027V56.6a7.547,7.547,0,1,0,15.095,0V36.226h8.423v24.31a11.383,11.383,0,0,1-11.35,11.35" transform="translate(-123.1 -17.182)" fill="#e64a3f"/>
      <path id="Caminho_317" data-name="Caminho 317" d="M364.377,36.755a17.83,17.83,0,0,0-17.829-17.83h-9.407V0h-8.423V54.522h16.39c.475.038.955.063,1.44.063a17.83,17.83,0,0,0,17.829-17.83m-7.528-.144A10.059,10.059,0,0,1,347,46.862c-.269,0-.534-.014-.8-.036h-9.058V26.36H347a10.059,10.059,0,0,1,9.854,10.251" transform="translate(-155.913)" fill="#e64a3f"/>
      <path id="Caminho_318" data-name="Caminho 318" d="M148.807,36.226h-8.423V56.6a7.547,7.547,0,1,1-15.095,0V36.226h-9.026v24.31a11.383,11.383,0,0,0,11.349,11.35h9.845a6.439,6.439,0,0,0,3.255-.694,39.579,39.579,0,0,1-.221,4.151,10.315,10.315,0,0,1-.972,4.113,6.355,6.355,0,0,1-1.405,1.81,6.24,6.24,0,0,1-1.77,1.089,14.3,14.3,0,0,1-5.28.863c-1.036.041-2.41.067-4.039.017a.034.034,0,0,0-.035.034v7.243a.034.034,0,0,0,.03.034,33.371,33.371,0,0,0,4.044.265,23.275,23.275,0,0,0,8.973-1.656,13.541,13.541,0,0,0,6.385-5.418q2.381-3.763,2.382-10.112V64.558c0-.057,0-.113,0-.169V36.226Z" transform="translate(-55.144 -17.182)" fill="#e64a3f"/>
    </g>
  </g>
</svg>
