<svg xmlns="http://www.w3.org/2000/svg" width="20.235" height="17.086" viewBox="0 0 20.235 17.086">
  <g id="ico" transform="translate(0 0)">
    <g id="union" transform="translate(20.235 17.086) rotate(180)" fill="#fff" stroke-linejoin="round">
      <path d="M7.893,16.808l-7.5-7.5a.954.954,0,0,1-.272-.32A.949.949,0,0,1,.456,7.714L7.893.277A.949.949,0,0,1,9.234,1.619L3.277,7.576h16.01a.949.949,0,0,1,0,1.9H3.24l5.994,5.993a.949.949,0,0,1-1.341,1.342Z" stroke="none"/>
      <path d="M 8.56316089630127 17.0858211517334 C 8.320500373840332 17.0858211517334 8.077950477600098 16.99335098266602 7.893000602722168 16.80840110778809 L 0.3933505713939667 9.308751106262207 C 0.3579005897045135 9.282131195068359 0.3238405883312225 9.252740859985352 0.2916005849838257 9.220500946044922 C 0.2214605808258057 9.150361061096191 0.1646105796098709 9.071990966796875 0.1210105791687965 8.988540649414062 C 0.04398057982325554 8.851401329040527 5.783081178378779e-07 8.69325065612793 5.783081178378779e-07 8.524801254272461 C 5.783081178378779e-07 8.181180953979492 0.1828305721282959 7.880161285400391 0.4564705789089203 7.713730812072754 L 7.893000602722168 0.2772010564804077 C 8.262900352478027 -0.09269896149635315 8.863200187683105 -0.09269896149635315 9.234000205993652 0.2772010564804077 C 9.604800224304199 0.6480010747909546 9.604800224304199 1.248301029205322 9.234000205993652 1.619101047515869 L 3.27690052986145 7.57620096206665 L 19.28700065612793 7.57620096206665 C 19.81080055236816 7.57620096206665 20.23470115661621 8.001001358032227 20.23470115661621 8.524801254272461 C 20.23470115661621 9.048601150512695 19.81080055236816 9.473401069641113 19.28700065612793 9.473401069641113 L 3.240190505981445 9.473401069641113 L 9.234000205993652 15.46650123596191 C 9.604800224304199 15.83730125427246 9.604800224304199 16.43760108947754 9.234000205993652 16.80840110778809 C 9.048600196838379 16.99335098266602 8.805820465087891 17.0858211517334 8.56316089630127 17.0858211517334 Z" stroke="none" fill="#414141"/>
    </g>
  </g>
</svg>
